<?xml version="1.0" encoding="UTF-8" standalone="no"?>
<!-- Created with Inkscape (http://www.inkscape.org/) -->

<svg
   width="39.993565mm"
   height="26.474117mm"
   viewBox="0 0 39.993565 26.474117"
   version="1.1"
   id="svg1"
   xml:space="preserve"
   inkscape:version="1.3 (0e150ed6c4, 2023-07-21)"
   sodipodi:docname="logo_v4.svg"
   xmlns:inkscape="http://www.inkscape.org/namespaces/inkscape"
   xmlns:sodipodi="http://sodipodi.sourceforge.net/DTD/sodipodi-0.dtd"
   xmlns="http://www.w3.org/2000/svg"
   xmlns:svg="http://www.w3.org/2000/svg"><sodipodi:namedview
     id="namedview1"
     pagecolor="#ffffff"
     bordercolor="#000000"
     borderopacity="0.25"
     inkscape:showpageshadow="2"
     inkscape:pageopacity="0.0"
     inkscape:pagecheckerboard="0"
     inkscape:deskcolor="#d1d1d1"
     inkscape:document-units="mm"
     inkscape:zoom="2.0000001"
     inkscape:cx="444.49998"
     inkscape:cy="482.24998"
     inkscape:window-width="1920"
     inkscape:window-height="1111"
     inkscape:window-x="-9"
     inkscape:window-y="-9"
     inkscape:window-maximized="1"
     inkscape:current-layer="layer1"
     showguides="false"
     showgrid="false" /><defs
     id="defs1" /><g
     inkscape:label="Layer 1"
     inkscape:groupmode="layer"
     id="layer1"
     transform="translate(-7.7785824,-78.929758)"><g
       id="g33"
       transform="translate(-100.0125,-38.1)"
       inkscape:export-filename="export\color_b&amp;w.png"
       inkscape:export-xdpi="300"
       inkscape:export-ydpi="300"><text
         xml:space="preserve"
         style="font-style:normal;font-variant:normal;font-weight:normal;font-stretch:normal;font-size:9.45697px;line-height:0.8;font-family:Verdana;-inkscape-font-specification:Verdana;text-decoration-color:#000000;fill:#000000;fill-opacity:1;stroke-width:4.09882;stroke-linecap:butt;stroke-dasharray:none"
         x="106.91373"
         y="143.36073"
         id="text28"><tspan
           sodipodi:role="line"
           style="font-style:normal;font-variant:normal;font-weight:bold;font-stretch:normal;font-size:9.45697px;line-height:0.8;font-family:Verdana;-inkscape-font-specification:Verdana;fill:#000000;fill-opacity:1;stroke-width:4.09882"
           x="106.91373"
           y="143.36073"
           id="tspan28">FuTURE </tspan></text><path
         id="path28"
         style="fill:none;stroke:#000000;stroke-width:0.435078;stroke-linecap:round;stroke-opacity:1"
         d="m 124.9607,126.10641 6.34529,6.34529 c 3.29193,3.29193 8.6292,3.29193 11.92113,0 3.5044,-3.55556 3.46294,-9.27879 -0.0926,-12.78319 -3.25597,-3.24079 -8.52265,-3.22846 -11.76342,0.0275 l -6.41038,6.41037 m -0.86543,-6.41037 6.41038,6.41037 -6.34529,6.34529 c -3.29193,3.29193 -8.6292,3.29193 -11.92113,0 -3.50441,-3.55555 -3.46294,-9.27878 0.0926,-12.78319 3.25597,-3.24079 8.52264,-3.22845 11.76342,0.0275 z"
         sodipodi:nodetypes="csccccccsccc" /><path
         id="path29"
         style="fill:none;stroke:#ab192d;stroke-width:0.331857;stroke-linecap:round;stroke-opacity:1"
         d="m 125.61846,126.10092 4.83989,4.8399 c 2.51093,2.51093 6.58196,2.51093 9.09289,0 2.673,-2.71202 2.64137,-7.07743 -0.0706,-9.75043 -2.4835,-2.47193 -6.50068,-2.46252 -8.9726,0.021 l -4.88954,4.88954 m -0.66011,-4.88954 4.88954,4.88954 -4.83989,4.83989 c -2.51093,2.51094 -6.58196,2.51093 -9.09289,0 -2.673,-2.71201 -2.64137,-7.07743 0.0706,-9.75043 2.4835,-2.47192 6.50068,-2.46251 8.9726,0.021 z"
         sodipodi:nodetypes="csccccccsccc" /><path
         id="path30"
         style="fill:none;stroke:#000000;stroke-width:0.255742;stroke-linecap:round;stroke-opacity:1"
         d="m 126.1035,126.09688 3.7298,3.7298 c 1.93501,1.93502 5.07229,1.93502 7.00731,0 2.05991,-2.08998 2.03554,-5.45413 -0.0544,-7.51404 -1.91388,-1.90496 -5.00966,-1.8977 -6.91461,0.0162 l -3.76806,3.76806 m -0.5087,-3.76806 3.76805,3.76806 -3.72979,3.7298 c -1.93502,1.93502 -5.0723,1.93502 -7.00732,0 -2.05991,-2.08998 -2.03554,-5.45413 0.0544,-7.51404 1.91388,-1.90495 5.00966,-1.8977 6.91461,0.0162 z"
         sodipodi:nodetypes="csccccccsccc" /><path
         id="path31"
         style="fill:none;stroke:#000000;stroke-width:0.185881;stroke-linecap:round;stroke-opacity:1"
         d="m 126.54867,126.09318 2.71094,2.71094 c 1.40644,1.40644 3.68672,1.40644 5.09316,0 1.49721,-1.51907 1.4795,-3.96424 -0.0396,-5.46146 -1.39107,-1.38459 -3.6412,-1.37931 -5.02578,0.0118 l -2.73875,2.73876 m -0.36975,-2.73876 2.73876,2.73876 -2.71095,2.71094 c -1.40644,1.40644 -3.68672,1.40644 -5.09316,0 -1.49721,-1.51907 -1.47949,-3.96424 0.0396,-5.46146 1.39108,-1.38459 3.6412,-1.37931 5.02578,0.0118 z"
         sodipodi:nodetypes="csccccccsccc" /><path
         id="path32"
         style="fill:none;stroke:#ab192d;stroke-width:0.185881;stroke-linecap:round;stroke-opacity:1"
         d="m 126.54867,126.09318 2.71094,2.71094 c 1.40644,1.40644 3.68672,1.40644 5.09316,0 1.49721,-1.51907 1.4795,-3.96424 -0.0396,-5.46146 -1.39107,-1.38459 -3.6412,-1.37931 -5.02578,0.0118 l -2.73875,2.73876 m -0.36975,-2.73876 2.73876,2.73876 -2.71095,2.71094 c -1.40644,1.40644 -3.68672,1.40644 -5.09316,0 -1.49721,-1.51907 -1.47949,-3.96424 0.0396,-5.46146 1.39108,-1.38459 3.6412,-1.37931 5.02578,0.0118 z"
         sodipodi:nodetypes="csccccccsccc" /><path
         id="path33"
         style="fill:none;stroke:#6d6d6d;stroke-width:0.129;stroke-linecap:round;stroke-dasharray:none;stroke-opacity:1"
         d="m 126.91078,126.09018 1.88218,1.88218 c 0.97647,0.97647 2.55965,0.97647 3.53612,0 1.0395,-1.05467 1.0272,-2.75233 -0.0275,-3.79183 -0.96581,-0.9613 -2.52804,-0.95764 -3.48934,0.008 l -1.90148,1.90149 m -0.25671,-1.90149 1.90148,1.90149 -1.88217,1.88217 c -0.97648,0.97648 -2.55965,0.97648 -3.53612,0 -1.0395,-1.05467 -1.0272,-2.75233 0.0275,-3.79182 0.9658,-0.96131 2.52803,-0.95765 3.48934,0.008 z"
         sodipodi:nodetypes="csccccccsccc" /></g></g></svg>
