<?xml version="1.0" encoding="UTF-8" standalone="no"?>
<!-- Created with Inkscape (http://www.inkscape.org/) -->

<svg
   width="40.29567mm"
   height="41.137943mm"
   viewBox="0 0 40.29567 41.137943"
   version="1.1"
   id="svg1"
   xml:space="preserve"
   inkscape:version="1.3 (0e150ed6c4, 2023-07-21)"
   sodipodi:docname="logo_v4.svg"
   xmlns:inkscape="http://www.inkscape.org/namespaces/inkscape"
   xmlns:sodipodi="http://sodipodi.sourceforge.net/DTD/sodipodi-0.dtd"
   xmlns="http://www.w3.org/2000/svg"
   xmlns:svg="http://www.w3.org/2000/svg"><sodipodi:namedview
     id="namedview1"
     pagecolor="#ffffff"
     bordercolor="#000000"
     borderopacity="0.25"
     inkscape:showpageshadow="2"
     inkscape:pageopacity="0.0"
     inkscape:pagecheckerboard="0"
     inkscape:deskcolor="#d1d1d1"
     inkscape:document-units="mm"
     inkscape:zoom="2.0000001"
     inkscape:cx="444.49998"
     inkscape:cy="482.24998"
     inkscape:window-width="1920"
     inkscape:window-height="1111"
     inkscape:window-x="-9"
     inkscape:window-y="-9"
     inkscape:window-maximized="1"
     inkscape:current-layer="layer1"
     showguides="false"
     showgrid="false" /><defs
     id="defs1" /><g
     inkscape:label="Layer 1"
     inkscape:groupmode="layer"
     id="layer1"
     transform="translate(-107.48898,-117.02976)"><text
       xml:space="preserve"
       style="font-style:normal;font-variant:normal;font-weight:normal;font-stretch:normal;font-size:9.45697px;line-height:0.8;font-family:Verdana;-inkscape-font-specification:Verdana;text-decoration-color:#000000;fill:#000000;fill-opacity:1;stroke-width:4.09882;stroke-linecap:butt;stroke-dasharray:none"
       x="106.91373"
       y="143.36073"
       id="text308"
       inkscape:export-filename="export\logo.png"
       inkscape:export-xdpi="1600"
       inkscape:export-ydpi="1600"><tspan
         sodipodi:role="line"
         style="font-style:normal;font-variant:normal;font-weight:bold;font-stretch:normal;font-size:9.45697px;line-height:0.8;font-family:Verdana;-inkscape-font-specification:Verdana;fill:#000000;fill-opacity:1;stroke-width:4.09882"
         x="106.91373"
         y="143.36073"
         id="tspan308">FuTURE </tspan></text><path
       id="path309"
       style="fill:none;stroke:#000000;stroke-width:0.435078;stroke-linecap:round;stroke-opacity:1"
       d="m 124.9607,126.10641 6.34529,6.34529 c 3.29193,3.29193 8.6292,3.29193 11.92113,0 3.5044,-3.55556 3.46294,-9.27879 -0.0926,-12.78319 -3.25597,-3.24079 -8.52265,-3.22846 -11.76342,0.0275 l -6.41038,6.41037 m -0.86543,-6.41037 6.41038,6.41037 -6.34529,6.34529 c -3.29193,3.29193 -8.6292,3.29193 -11.92113,0 -3.50441,-3.55555 -3.46294,-9.27878 0.0926,-12.78319 3.25597,-3.24079 8.52264,-3.22845 11.76342,0.0275 z"
       sodipodi:nodetypes="csccccccsccc" /><path
       id="path310"
       style="fill:none;stroke:#ab192d;stroke-width:0.331857;stroke-linecap:round;stroke-opacity:1"
       d="m 125.61846,126.10092 4.83989,4.8399 c 2.51093,2.51093 6.58196,2.51093 9.09289,0 2.673,-2.71202 2.64137,-7.07743 -0.0706,-9.75043 -2.4835,-2.47193 -6.50068,-2.46252 -8.9726,0.021 l -4.88954,4.88954 m -0.66011,-4.88954 4.88954,4.88954 -4.83989,4.83989 c -2.51093,2.51094 -6.58196,2.51093 -9.09289,0 -2.673,-2.71201 -2.64137,-7.07743 0.0706,-9.75043 2.4835,-2.47192 6.50068,-2.46251 8.9726,0.021 z"
       sodipodi:nodetypes="csccccccsccc" /><path
       id="path311"
       style="fill:none;stroke:#000000;stroke-width:0.255742;stroke-linecap:round;stroke-opacity:1"
       d="m 126.1035,126.09688 3.7298,3.7298 c 1.93501,1.93502 5.07229,1.93502 7.00731,0 2.05991,-2.08998 2.03554,-5.45413 -0.0544,-7.51404 -1.91388,-1.90496 -5.00966,-1.8977 -6.91461,0.0162 l -3.76806,3.76806 m -0.5087,-3.76806 3.76805,3.76806 -3.72979,3.7298 c -1.93502,1.93502 -5.0723,1.93502 -7.00732,0 -2.05991,-2.08998 -2.03554,-5.45413 0.0544,-7.51404 1.91388,-1.90495 5.00966,-1.8977 6.91461,0.0162 z"
       sodipodi:nodetypes="csccccccsccc" /><path
       id="path312"
       style="fill:none;stroke:#000000;stroke-width:0.185881;stroke-linecap:round;stroke-opacity:1"
       d="m 126.54867,126.09318 2.71094,2.71094 c 1.40644,1.40644 3.68672,1.40644 5.09316,0 1.49721,-1.51907 1.4795,-3.96424 -0.0396,-5.46146 -1.39107,-1.38459 -3.6412,-1.37931 -5.02578,0.0118 l -2.73875,2.73876 m -0.36975,-2.73876 2.73876,2.73876 -2.71095,2.71094 c -1.40644,1.40644 -3.68672,1.40644 -5.09316,0 -1.49721,-1.51907 -1.47949,-3.96424 0.0396,-5.46146 1.39108,-1.38459 3.6412,-1.37931 5.02578,0.0118 z"
       sodipodi:nodetypes="csccccccsccc" /><path
       id="path313"
       style="fill:none;stroke:#ab192d;stroke-width:0.185881;stroke-linecap:round;stroke-opacity:1"
       d="m 126.54867,126.09318 2.71094,2.71094 c 1.40644,1.40644 3.68672,1.40644 5.09316,0 1.49721,-1.51907 1.4795,-3.96424 -0.0396,-5.46146 -1.39107,-1.38459 -3.6412,-1.37931 -5.02578,0.0118 l -2.73875,2.73876 m -0.36975,-2.73876 2.73876,2.73876 -2.71095,2.71094 c -1.40644,1.40644 -3.68672,1.40644 -5.09316,0 -1.49721,-1.51907 -1.47949,-3.96424 0.0396,-5.46146 1.39108,-1.38459 3.6412,-1.37931 5.02578,0.0118 z"
       sodipodi:nodetypes="csccccccsccc" /><path
       id="path314"
       style="fill:none;stroke:#6d6d6d;stroke-width:0.129;stroke-linecap:round;stroke-dasharray:none;stroke-opacity:1"
       d="m 126.91078,126.09018 1.88218,1.88218 c 0.97647,0.97647 2.55965,0.97647 3.53612,0 1.0395,-1.05467 1.0272,-2.75233 -0.0275,-3.79183 -0.96581,-0.9613 -2.52804,-0.95764 -3.48934,0.008 l -1.90148,1.90149 m -0.25671,-1.90149 1.90148,1.90149 -1.88217,1.88217 c -0.97648,0.97648 -2.55965,0.97648 -3.53612,0 -1.0395,-1.05467 -1.0272,-2.75233 0.0275,-3.79182 0.9658,-0.96131 2.52803,-0.95765 3.48934,0.008 z"
       sodipodi:nodetypes="csccccccsccc" /><g
       id="g27"
       transform="translate(-101.25997,30.197016)"
       style="fill:#000000;fill-opacity:1"
       inkscape:export-filename="export\color_B&amp;W_spell.png"
       inkscape:export-xdpi="300"
       inkscape:export-ydpi="300"><text
         xml:space="preserve"
         style="font-style:normal;font-variant:normal;font-weight:normal;font-stretch:normal;font-size:2.01685px;line-height:1;font-family:Arial;-inkscape-font-specification:Arial;text-decoration-color:#000000;fill:#000000;fill-opacity:1;stroke:none;stroke-width:0.556875;stroke-linecap:round;stroke-dasharray:none;stroke-opacity:1"
         x="107.38537"
         y="96.613663"
         id="text23"
         transform="matrix(2.2738999,0,0,2.2738999,-35.602733,-101.85649)"><tspan
           sodipodi:role="line"
           style="font-style:normal;font-variant:normal;font-weight:normal;font-stretch:normal;font-size:2.01685px;font-family:Arial;-inkscape-font-specification:Arial;fill:#000000;fill-opacity:1;stroke:none;stroke-width:0.556875"
           x="107.38537"
           y="96.613663"
           id="tspan12"><tspan
   style="font-style:normal;font-variant:normal;font-weight:bold;font-stretch:normal;font-size:2.01685px;font-family:Arial;-inkscape-font-specification:Arial;fill:#000000;fill-opacity:1;stroke-width:0.556875"
   id="tspan10">Fu</tspan>ture <tspan
   style="font-weight:bold;font-size:2.01685px;fill:#000000;fill-opacity:1"
   id="tspan11">T</tspan>herapeutic </tspan><tspan
           sodipodi:role="line"
           style="font-style:normal;font-variant:normal;font-weight:normal;font-stretch:normal;font-size:2.01685px;font-family:Arial;-inkscape-font-specification:Arial;fill:#000000;fill-opacity:1;stroke:none;stroke-width:0.556875"
           x="107.38537"
           y="98.630516"
           id="tspan15"><tspan
   style="font-weight:bold;font-size:2.01685px;fill:#000000;fill-opacity:1"
   id="tspan13">U</tspan>biquitous <tspan
   style="font-weight:bold;font-size:2.01685px;fill:#000000;fill-opacity:1"
   id="tspan14">R</tspan>obotic </tspan><tspan
           sodipodi:role="line"
           style="font-style:normal;font-variant:normal;font-weight:normal;font-stretch:normal;font-size:2.01685px;font-family:Arial;-inkscape-font-specification:Arial;fill:#000000;fill-opacity:1;stroke:none;stroke-width:0.556875"
           x="107.38537"
           y="100.64736"
           id="tspan17"><tspan
   style="font-style:normal;font-variant:normal;font-weight:bold;font-stretch:normal;font-size:2.01685px;font-family:Arial;-inkscape-font-specification:Arial;fill:#000000;fill-opacity:1;stroke-width:0.556875"
   id="tspan16">E</tspan>ngineering Lab</tspan></text><path
         style="opacity:1;fill:#000000;fill-opacity:1;stroke:#000000;stroke-width:0.3;stroke-linecap:round;stroke-dasharray:none;stroke-dashoffset:0;stroke-opacity:1"
         d="m 208.89895,118.2509 h 3.84495"
         id="path23" /><path
         style="opacity:1;fill:#000000;fill-opacity:1;stroke:#000000;stroke-width:0.3;stroke-linecap:round;stroke-dasharray:none;stroke-dashoffset:0;stroke-opacity:1"
         d="m 223.67411,118.2509 h 2.01972"
         id="path24"
         sodipodi:nodetypes="cc" /><path
         style="opacity:1;fill:#000000;fill-opacity:1;stroke:#000000;stroke-width:0.3;stroke-linecap:round;stroke-dasharray:none;stroke-dashoffset:0;stroke-opacity:1"
         d="m 209.03124,122.91101 h 2.27406"
         id="path25"
         sodipodi:nodetypes="cc" /><path
         style="opacity:1;fill:#000000;fill-opacity:1;stroke:#000000;stroke-width:0.3;stroke-linecap:round;stroke-dasharray:none;stroke-dashoffset:0;stroke-opacity:1"
         d="m 231.81874,122.91101 h 3.07289"
         id="path26"
         sodipodi:nodetypes="cc" /><path
         style="opacity:1;fill:#000000;fill-opacity:1;stroke:#000000;stroke-width:0.3;stroke-linecap:round;stroke-dasharray:none;stroke-dashoffset:0;stroke-opacity:1"
         d="m 208.89895,127.37295 h 2.4914"
         id="path27"
         sodipodi:nodetypes="cc" /><text
         xml:space="preserve"
         style="font-style:normal;font-variant:normal;font-weight:normal;font-stretch:normal;font-size:3.88056px;line-height:0.8;font-family:Arial;-inkscape-font-specification:Arial;text-decoration-color:#000000;fill:#000000;fill-opacity:1;stroke-width:0.3;stroke-linecap:round"
         x="230.30634"
         y="122.48312"
         id="text27"><tspan
           sodipodi:role="line"
           id="tspan27"
           style="fill:#000000;fill-opacity:1;stroke-width:0.3"
           x="230.30634"
           y="122.48312" /></text></g></g></svg>
